# xmcd
#
# Track frame offsets:
#	150
#	19884
#	44187
#	83038
#	106365
#	126918
#	149745
#	172672
#	194898
#	208062
#	254078
#	269467
#	285068
#	305896
#	329610
#
# Disc length: 4726 seconds
#
# Revision: 1
# Processed by: cddbd v1.5.2PL0 Copyright (c) Steve Scherf et al.
# Submitted via: audiograbber 1.83.01
#
DISCID=f412740f
DTITLE=B.B. King - Lucille and Friends
DYEAR=1995
DGENRE=Blues
TTITLE0=When Love Comes To Town (With U2)
TTITLE1=Playing With My Friends (With Robert Cray)
TTITLE2=To Know You Is To Love You (With Stevie Wonder)
TTITLE3=Caught A Touch Of Your Love (With Grover Washington Jr.)
TTITLE4=All You Ever Give Me Is The Blues (With Vernon Reid)
TTITLE5=You Shook Me (With John Lee Hooker)
TTITLE6=Spirit In The Dark (With Diane Schuur)
TTITLE7=Can't Get Enough (With Mick Fleetwood and Stevie Nicks)
TTITLE8=Since I Met You Baby (With Gary Moore)
TTITLE9=BB's Blues (With Branford Marsalis)
TTITLE10=Better Not Look Down (With The Crusaders)
TTITLE11=Frosty (With Albert Collins)
TTITLE12=Hummingbird (With Leon Russell and Joe Walsh)
TTITLE13=Ghetto Woman (With Gary Wright, Mac Rebennack and Ringo Starr)
TTITLE14=Let The Good Times Roll (With Bobby Bland)
EXTD=
EXTT0=
EXTT1=
EXTT2=
EXTT3=
EXTT4=
EXTT5=
EXTT6=
EXTT7=
EXTT8=
EXTT9=
EXTT10=
EXTT11=
EXTT12=
EXTT13=
EXTT14=
PLAYORDER=
